<svg width="152" height="53" viewBox="0 0 152 53" fill="none" xmlns="http://www.w3.org/2000/svg">
<path d="M7.19754 36.12V30.9017H10.7963C11.736 30.9017 12.5757 30.7718 13.3154 30.5119C14.0752 30.232 14.715 29.8421 15.2348 29.3423C15.7546 28.8225 16.1545 28.2027 16.4344 27.4829C16.7143 26.7432 16.8542 25.9134 16.8542 24.9938C16.8542 24.0341 16.7143 23.1944 16.4344 22.4746C16.1545 21.7349 15.7546 21.1251 15.2348 20.6452C14.715 20.1454 14.0752 19.7755 13.3154 19.5356C12.5757 19.2757 11.736 19.1458 10.7963 19.1458H7.19754V13.9275H10.5564C12.5357 13.9275 14.2651 14.2074 15.7446 14.7673C17.2441 15.3271 18.4937 16.1068 19.4933 17.1065C20.493 18.0861 21.2427 19.2257 21.7426 20.5253C22.2424 21.8248 22.4923 23.2044 22.4923 24.6639V25.3236C22.4923 26.6632 22.2424 27.9827 21.7426 29.2823C21.2427 30.5619 20.493 31.7215 19.4933 32.7611C18.4937 33.7808 17.2441 34.6005 15.7446 35.2203C14.2651 35.8201 12.5357 36.12 10.5564 36.12H7.19754ZM2.21924 36.12V13.9275H7.79734V36.12H2.21924ZM33.0883 36.5998C31.6888 36.5998 30.4492 36.3599 29.3696 35.88C28.2899 35.4002 27.3803 34.7504 26.6405 33.9307C25.9008 33.111 25.331 32.1913 24.9311 31.1717C24.5512 30.152 24.3613 29.1024 24.3613 28.0227V27.4229C24.3613 26.3033 24.5512 25.2337 24.9311 24.214C25.331 23.1744 25.8908 22.2547 26.6105 21.455C27.3503 20.6552 28.25 20.0255 29.3096 19.5656C30.3692 19.0858 31.5688 18.8459 32.9084 18.8459C34.6878 18.8459 36.1972 19.2457 37.4368 20.0455C38.6764 20.8452 39.6261 21.9048 40.2858 23.2244C40.9456 24.5239 41.2755 25.9434 41.2755 27.4829V29.2223H26.6405V26.2833H38.1266L36.2372 27.6029C36.2372 26.6632 36.1073 25.8735 35.8474 25.2337C35.6074 24.5739 35.2376 24.0741 34.7377 23.7342C34.2579 23.3943 33.6481 23.2244 32.9084 23.2244C32.1886 23.2244 31.5588 23.3943 31.019 23.7342C30.4992 24.0541 30.0993 24.5539 29.8194 25.2337C29.5395 25.8935 29.3996 26.7332 29.3996 27.7528C29.3996 28.6725 29.5295 29.4722 29.7894 30.152C30.0493 30.8118 30.4492 31.3216 30.989 31.6815C31.5288 32.0414 32.2286 32.2213 33.0883 32.2213C33.848 32.2213 34.4678 32.0913 34.9477 31.8314C35.4475 31.5715 35.7974 31.2216 35.9973 30.7818H40.9756C40.7357 31.9014 40.2558 32.9011 39.5361 33.7808C38.8363 34.6605 37.9366 35.3502 36.837 35.8501C35.7574 36.3499 34.5078 36.5998 33.0883 36.5998ZM44.1524 41.9979V19.4457H48.4709V26.5832H47.9911C48.0511 24.9638 48.371 23.5842 48.9508 22.4446C49.5506 21.305 50.3603 20.4453 51.3799 19.8655C52.3996 19.2657 53.5692 18.9658 54.8887 18.9658C56.0283 18.9658 57.058 19.1758 57.9777 19.5956C58.8974 19.9955 59.6871 20.5753 60.3469 21.335C61.0066 22.0748 61.5065 22.9545 61.8464 23.9741C62.2062 24.9938 62.3862 26.1134 62.3862 27.333V28.0527C62.3862 29.2723 62.2262 30.4019 61.9063 31.4416C61.5864 32.4612 61.1066 33.3609 60.4668 34.1406C59.827 34.9004 59.0373 35.4902 58.0976 35.91C57.178 36.3299 56.1183 36.5398 54.9187 36.5398C53.6392 36.5398 52.5096 36.2899 51.5299 35.7901C50.5502 35.2702 49.7705 34.5005 49.1907 33.4809C48.6309 32.4412 48.331 31.1417 48.291 29.5822L49.6105 31.2016V41.9979H44.1524ZM53.2693 32.0414C53.989 32.0414 54.6188 31.8614 55.1586 31.5015C55.7185 31.1217 56.1483 30.6018 56.4482 29.9421C56.7681 29.2823 56.928 28.5326 56.928 27.6928C56.928 26.8331 56.7681 26.0934 56.4482 25.4736C56.1483 24.8338 55.7285 24.344 55.1886 24.0041C54.6488 23.6442 54.009 23.4643 53.2693 23.4643C52.6095 23.4643 51.9897 23.6142 51.4099 23.9141C50.8501 24.214 50.3903 24.6539 50.0304 25.2337C49.6705 25.8135 49.4906 26.5132 49.4906 27.333V28.3526C49.4906 29.1323 49.6805 29.8021 50.0604 30.3619C50.4403 30.9017 50.9201 31.3216 51.4999 31.6215C52.0797 31.9014 52.6695 32.0414 53.2693 32.0414ZM73.2727 36.2399C71.4733 36.2399 70.0338 36.02 68.9542 35.5801C67.8945 35.1403 67.1248 34.4105 66.645 33.3909C66.1651 32.3712 65.9252 30.9917 65.9252 29.2523L65.9552 15.1271H70.9935L70.9635 29.4023C70.9635 30.142 71.1534 30.7118 71.5333 31.1117C71.9331 31.4915 72.5029 31.6815 73.2427 31.6815H75.5219V36.2399H73.2727ZM63.526 23.4043V19.4457H75.5219V23.4043H63.526ZM78.6872 36V14.1075H84.2653V36H78.6872ZM83.6655 27.5129V22.9545H91.7928V27.5129H83.6655ZM83.6655 18.6659V14.1075H92.1227V18.6659H83.6655ZM95.6443 36V14.1075H101.102V36H95.6443ZM93.785 18.0661V14.1075H101.102V18.0661H93.785ZM113.375 36.5998C111.915 36.5998 110.616 36.3799 109.476 35.94C108.337 35.5002 107.367 34.8904 106.567 34.1106C105.787 33.3309 105.188 32.4312 104.768 31.4116C104.368 30.3919 104.168 29.3023 104.168 28.1427V27.4229C104.168 26.2233 104.378 25.1037 104.798 24.0641C105.238 23.0244 105.857 22.1147 106.657 21.335C107.457 20.5553 108.427 19.9455 109.566 19.5056C110.706 19.0658 111.975 18.8459 113.375 18.8459C114.794 18.8459 116.064 19.0658 117.184 19.5056C118.323 19.9455 119.293 20.5553 120.093 21.335C120.892 22.1147 121.502 23.0244 121.922 24.0641C122.362 25.1037 122.582 26.2233 122.582 27.4229V28.1427C122.582 29.3023 122.372 30.3919 121.952 31.4116C121.552 32.4312 120.952 33.3309 120.153 34.1106C119.373 34.8904 118.413 35.5002 117.274 35.94C116.134 36.3799 114.834 36.5998 113.375 36.5998ZM113.375 32.0414C114.215 32.0414 114.904 31.8614 115.444 31.5015C116.004 31.1417 116.424 30.6418 116.704 30.0021C116.984 29.3423 117.124 28.6025 117.124 27.7828C117.124 26.9231 116.974 26.1734 116.674 25.5336C116.394 24.8738 115.974 24.354 115.414 23.9741C114.854 23.5942 114.175 23.4043 113.375 23.4043C112.575 23.4043 111.895 23.5942 111.336 23.9741C110.776 24.354 110.346 24.8738 110.046 25.5336C109.766 26.1734 109.626 26.9231 109.626 27.7828C109.626 28.6025 109.766 29.3423 110.046 30.0021C110.326 30.6418 110.746 31.1417 111.306 31.5015C111.865 31.8614 112.555 32.0414 113.375 32.0414ZM131.638 36L134.577 19.9855H140.275L143.634 36H139.495L136.016 20.1054H138.535L135.356 36H131.638ZM130.618 36L130.588 31.4416H133.887L133.917 36H130.618ZM127.949 36L123.6 19.4457H128.939L132.957 36H127.949ZM140.964 36L140.994 31.4416H144.293L144.263 36H140.964ZM142.284 36L145.913 19.4457H150.891L146.932 36H142.284Z" fill="white"/>
<rect x="1.80969" y="24.4313" width="6.33404" height="2.71459" fill="#800000"/>
<path fill-rule="evenodd" clip-rule="evenodd" d="M111.884 33.0214C111.366 32.9065 110.868 32.7117 110.41 32.4441L110.437 31.9244C110.473 31.2158 109.926 30.6709 109.219 30.7069L108.645 30.7362C108.372 30.3038 108.166 29.8331 108.033 29.3397L108.484 28.9326C109.011 28.4573 109.009 27.685 108.484 27.2108L108.003 26.7769C108.121 26.2943 108.309 25.8314 108.56 25.4029L109.219 25.4365C109.928 25.4727 110.473 24.9256 110.437 24.2189L110.403 23.56C110.831 23.3089 111.294 23.1214 111.776 23.0035L112.21 23.4841C112.686 24.0109 113.458 24.0096 113.932 23.4841L114.34 23.0333C114.833 23.1663 115.304 23.3723 115.736 23.6446L115.707 24.2189C115.67 24.9278 116.217 25.4727 116.924 25.4367L117.444 25.4101C117.711 25.8685 117.906 26.3658 118.021 26.884L117.659 27.2108C117.132 27.6865 117.134 28.4586 117.659 28.9328L117.993 29.2345C117.863 29.7632 117.649 30.2678 117.36 30.7291L116.924 30.7069C116.215 30.6706 115.671 31.2177 115.707 31.9244L115.729 32.3599C115.268 32.6493 114.763 32.8632 114.234 32.9937L113.932 32.6594C113.457 32.1327 112.685 32.134 112.21 32.6594L111.884 33.0214ZM113 30.1429C114.183 30.1429 115.143 29.1835 115.143 28C115.143 26.8165 114.183 25.8571 113 25.8571C111.816 25.8571 110.857 26.8165 110.857 28C110.857 29.1835 111.816 30.1429 113 30.1429Z" fill="#800000"/>
</svg>
